<svg xmlns="http://www.w3.org/2000/svg" width="12" height="9" viewBox="0 0 12 9">    <g id="serving" transform="translate(-105 -435)">        <g id="Group_2" data-name="Group 2" transform="translate(107.458 438.752)">            <g id="XMLID_1573_" transform="translate(0 0)">                <path id="XMLID_1726_" d="M5.53,9.769H5.484a.272.272,0,0,1-.184-.3A2.337,2.337,0,0,1,6.953,7.687a.22.22,0,0,1,.276.149.245.245,0,0,1-.138.3A2,2,0,0,0,5.713,9.571.206.206,0,0,1,5.53,9.769Z" transform="translate(-5.3 -7.673)" fill="#7b7b7b"/>            </g>        </g>        <path id="service-desk" d="M13.393,14.856v-.9A5.307,5.307,0,0,0,8.679,8.578V7.656H9.964v-.9H6.536v.9H7.821v.922a5.307,5.307,0,0,0-4.714,5.378v.9H2.25v.9h12v-.9ZM8.25,9.456a4.35,4.35,0,0,1,4.2,3.6h-8.4a4.35,4.35,0,0,1,4.2-3.6Zm-4.286,4.5h8.571v.9H3.964Z" transform="translate(102.75 428.244)" fill="#7b7b7b"/>    </g></svg>