<svg xmlns="http://www.w3.org/2000/svg" width="15" height="15" viewBox="0 0 15 15">    <path id="home" d="M14.715,8.142a.939.939,0,0,1-.689.285.927.927,0,0,1-.681-.278l-.22-.22v6.131a.911.911,0,0,1-.271.658.9.9,0,0,1-.667.278H9.375V10.784a.476.476,0,0,0-.469-.468H6.094a.476.476,0,0,0-.469.468V15H2.812a.9.9,0,0,1-.666-.278.91.91,0,0,1-.271-.659V7.93l-.22.22a.927.927,0,0,1-.681.278.939.939,0,0,1-.689-.285A.937.937,0,0,1,0,7.455a.925.925,0,0,1,.278-.68l6.5-6.5A.928.928,0,0,1,7.5,0a.928.928,0,0,1,.718.278l6.5,6.5a.925.925,0,0,1,.278.68.937.937,0,0,1-.286.688Z" transform="translate(0 0.002)" fill="#f55a00"/></svg>