<svg xmlns="http://www.w3.org/2000/svg" width="15" height="15" viewBox="0 0 15 15">    <g id="help" transform="translate(-2.25 -2.25)">        <path id="Path_22" data-name="Path 22" d="M9.75,2.25a7.5,7.5,0,1,0,7.5,7.5A7.5,7.5,0,0,0,9.75,2.25Zm0,13.929A6.429,6.429,0,1,1,16.179,9.75,6.429,6.429,0,0,1,9.75,16.179Z" fill="#8b8b8b"/>        <path id="Path_23" data-name="Path 23" d="M17.92,25.575a.8.8,0,1,1-.8-.784.8.8,0,0,1,.8.784Z" transform="translate(-7.366 -11.807)" fill="#8b8b8b"/>        <path id="Path_24" data-name="Path 24" d="M15.589,9h-.8a2.405,2.405,0,0,0-2.411,2.411v.268h1.071v-.268a1.34,1.34,0,0,1,1.34-1.34h.8a1.339,1.339,0,1,1,0,2.679H14.517v2.411h1.071v-1.34a2.411,2.411,0,1,0,0-4.822Z" transform="translate(-5.303 -3.535)" fill="#8b8b8b"/>    </g></svg>