<svg xmlns="http://www.w3.org/2000/svg" width="15" height="15" viewBox="0 0 15 15">    <g id="info" transform="translate(-3 -3)">        <path id="Path_19" data-name="Path 19" d="M16.5,15.72a.75.75,0,0,1,1.5,0v4.5a.75.75,0,1,1-1.5,0Z" transform="translate(-6.75 -5.985)" fill="#8b8b8b"/>        <path id="Path_20" data-name="Path 20" d="M17.25,9.076a.75.75,0,1,0,.75.75A.75.75,0,0,0,17.25,9.076Z" transform="translate(-6.75 -3.038)" fill="#8b8b8b"/>        <path id="Path_21" data-name="Path 21" d="M10.5,3A7.5,7.5,0,1,0,18,10.5,7.5,7.5,0,0,0,10.5,3Zm-6,7.5a6,6,0,1,0,6-6A6,6,0,0,0,4.5,10.5Z" fill="#8b8b8b" fill-rule="evenodd"/>    </g></svg>