<svg xmlns="http://www.w3.org/2000/svg" width="16" height="14" viewBox="0 0 16 14">    <path id="like" d="M10.874,17.5a1.207,1.207,0,0,1-.649-.189,20.692,20.692,0,0,1-4.737-3.819,7.578,7.578,0,0,1-2.113-5.18,3.946,3.946,0,0,1,4-3.813,4.485,4.485,0,0,1,3.331,1.541.226.226,0,0,0,.327,0A4.483,4.483,0,0,1,14.369,4.5a3.946,3.946,0,0,1,4,3.813,7.581,7.581,0,0,1-2.113,5.18,20.7,20.7,0,0,1-4.737,3.819,1.207,1.207,0,0,1-.649.188Z" transform="translate(-2.874 -4)" fill="none" stroke="#8b8b8b" stroke-width="1"/></svg>