<svg xmlns="http://www.w3.org/2000/svg" width="15" height="15" viewBox="0 0 15 15">    <g id="settings" transform="translate(-2.715 -2.295)">        <path id="Path_17" data-name="Path 17" d="M16.281,10.2V9.381l1.059-.9a1.054,1.054,0,0,0,.209-1.37l-1.3-2.149a1.109,1.109,0,0,0-.954-.537,1.131,1.131,0,0,0-.353.054l-1.341.44a6.309,6.309,0,0,0-.723-.4L12.595,3.16a1.1,1.1,0,0,0-1.1-.865H8.909a1.1,1.1,0,0,0-1.1.865L7.524,4.513a6.382,6.382,0,0,0-.728.4L5.483,4.454a1.132,1.132,0,0,0-.353-.032,1.109,1.109,0,0,0-.954.537l-1.3,2.149A1.055,1.055,0,0,0,3.1,8.457l1.043.929v.822l-1.043.9a1.055,1.055,0,0,0-.226,1.37l1.3,2.149a1.109,1.109,0,0,0,.954.537,1.131,1.131,0,0,0,.353-.054l1.341-.44a6.309,6.309,0,0,0,.723.4l.282,1.354a1.1,1.1,0,0,0,1.1.865h2.6a1.1,1.1,0,0,0,1.1-.865l.282-1.354a6.382,6.382,0,0,0,.728-.4l1.336.44a1.131,1.131,0,0,0,.353.054,1.109,1.109,0,0,0,.954-.537l1.258-2.149a1.055,1.055,0,0,0-.226-1.349Zm-.988,3.89L13.4,13.469a4.922,4.922,0,0,1-1.5.843l-.391,1.929H8.91l-.392-1.907a5.2,5.2,0,0,1-1.49-.843l-1.9.6-1.3-2.149,1.5-1.289a4.657,4.657,0,0,1,0-1.681l-1.5-1.327L5.13,5.5l1.893.623a4.922,4.922,0,0,1,1.5-.843L8.91,3.348h2.6l.392,1.907A5.2,5.2,0,0,1,13.4,6.1l1.9-.6,1.3,2.149-1.5,1.289a4.658,4.658,0,0,1,0,1.681l1.5,1.327Z" transform="translate(0 0)" fill="#8b8b8b"/>        <path id="Path_18" data-name="Path 18" d="M14.561,17.7a3.225,3.225,0,1,1,3.311-3.223,3.149,3.149,0,0,1-.96,2.289A3.324,3.324,0,0,1,14.561,17.7Zm0-5.372a2.189,2.189,0,0,0-1.576.615,2.18,2.18,0,0,0,0,3.068,2.327,2.327,0,0,0,3.152,0,2.18,2.18,0,0,0,0-3.068A2.189,2.189,0,0,0,14.561,12.324Z" transform="translate(-4.349 -4.679)" fill="#8b8b8b"/>    </g></svg>